0
SECTION
2
HEADER
9
$INSUNITS
70
4
9
$ACADVER
1
AC1014
9
$HANDSEED
5
FFFF
0
ENDSEC
0
SECTION
2
TABLES
0
TABLE
2
VPORT
5
8
100
AcDbSymbolTable
0
ENDTAB
0
TABLE
2
LTYPE
5
5
100
AcDbSymbolTable
0
LTYPE
5
14
100
AcDbSymbolTableRecord
100
AcDbLinetypeTableRecord
2
BYBLOCK
70
0
0
LTYPE
5
15
100
AcDbSymbolTableRecord
100
AcDbLinetypeTableRecord
2
BYLAYER
70
0
0
LTYPE
5
16
100
AcDbSymbolTableRecord
100
AcDbLinetypeTableRecord
2
DASHED
70
0
3
Dashed __ __ __ __ __ __ __ __ __ __ __ __ __ _
72
65
73
2
40
0.75
49
0.5
74
0
49
-0.25
74
0
0
ENDTAB
0
TABLE
2
LAYER
5
2
100
AcDbSymbolTable
70
2
0
LAYER
5
50
100
AcDbSymbolTableRecord
100
AcDbLayerTableRecord
2
0
70
0
62
7
6
CONTINUOUS
0
ENDTAB
0
TABLE
2
STYLE
5
3
100
AcDbSymbolTable
70
1
0
STYLE
5
11
100
AcDbSymbolTableRecord
100
AcDbTextStyleTableRecord
2
STANDARD
70
0
0
ENDTAB
0
TABLE
2
VIEW
5
6
100
AcDbSymbolTable
70
0
0
ENDTAB
0
TABLE
2
UCS
5
7
100
AcDbSymbolTable
70
0
0
ENDTAB
0
TABLE
2
APPID
5
9
100
AcDbSymbolTable
70
2
0
APPID
5
12
100
AcDbSymbolTableRecord
100
AcDbRegAppTableRecord
2
ACAD
70
0
0
ENDTAB
0
TABLE
2
DIMSTYLE
5
A
100
AcDbSymbolTable
70
1
0
ENDTAB
0
TABLE
2
BLOCK_RECORD
5
1
100
AcDbSymbolTable
70
1
0
BLOCK_RECORD
5
1F
100
AcDbSymbolTableRecord
100
AcDbBlockTableRecord
2
*MODEL_SPACE
0
BLOCK_RECORD
5
1B
100
AcDbSymbolTableRecord
100
AcDbBlockTableRecord
2
*PAPER_SPACE
0
ENDTAB
0
ENDSEC
0
SECTION
2
BLOCKS
0
BLOCK
5
20
100
AcDbEntity
100
AcDbBlockBegin
2
*MODEL_SPACE
0
ENDBLK
5
21
100
AcDbEntity
100
AcDbBlockEnd
0
BLOCK
5
1C
100
AcDbEntity
100
AcDbBlockBegin
2
*PAPER_SPACE
0
ENDBLK
5
1D
100
AcDbEntity
100
AcDbBlockEnd
0
ENDSEC
0
SECTION
2
ENTITIES
0
SPLINE
5
100
100
AcDbEntity
8
0
100
AcDbSpline
70
6
71
5
72
506
73
500
74
0
42
0.000000001
43
0.0000000001
44
0.0000000001
40
0
40
0
40
0
40
0
40
0
40
0
40
0.0020202020202020202
40
0.0040404040404040404
40
0.0060606060606060606
40
0.0080808080808080808
40
0.0101010101010101
40
0.012121212121212119
40
0.014141414141414139
40
0.016161616161616158
40
0.018181818181818177
40
0.020202020202020197
40
0.022222222222222216
40
0.024242424242424235
40
0.026262626262626255
40
0.028282828282828274
40
0.030303030303030293
40
0.032323232323232316
40
0.034343434343434336
40
0.036363636363636355
40
0.038383838383838374
40
0.040404040404040394
40
0.042424242424242413
40
0.044444444444444432
40
0.046464646464646452
40
0.048484848484848471
40
0.05050505050505049
40
0.05252525252525251
40
0.054545454545454529
40
0.056565656565656548
40
0.058585858585858568
40
0.060606060606060587
40
0.062626262626262613
40
0.064646464646464633
40
0.066666666666666652
40
0.068686868686868671
40
0.070707070707070691
40
0.07272727272727271
40
0.074747474747474729
40
0.076767676767676749
40
0.078787878787878768
40
0.080808080808080787
40
0.082828282828282807
40
0.084848484848484826
40
0.086868686868686845
40
0.088888888888888865
40
0.090909090909090884
40
0.092929292929292903
40
0.094949494949494923
40
0.096969696969696942
40
0.098989898989898961
40
0.10101010101010098
40
0.103030303030303
40
0.10505050505050502
40
0.10707070707070704
40
0.10909090909090906
40
0.11111111111111108
40
0.1131313131313131
40
0.11515151515151512
40
0.11717171717171714
40
0.11919191919191915
40
0.12121212121212117
40
0.12323232323232319
40
0.12525252525252523
40
0.12727272727272726
40
0.12929292929292929
40
0.13131313131313133
40
0.13333333333333336
40
0.13535353535353539
40
0.13737373737373743
40
0.13939393939393946
40
0.14141414141414149
40
0.14343434343434353
40
0.14545454545454556
40
0.14747474747474759
40
0.14949494949494962
40
0.15151515151515166
40
0.15353535353535369
40
0.15555555555555572
40
0.15757575757575776
40
0.15959595959595979
40
0.16161616161616182
40
0.16363636363636386
40
0.16565656565656589
40
0.16767676767676792
40
0.16969696969696996
40
0.17171717171717199
40
0.17373737373737402
40
0.17575757575757606
40
0.17777777777777809
40
0.17979797979798012
40
0.18181818181818216
40
0.18383838383838419
40
0.18585858585858622
40
0.18787878787878826
40
0.18989898989899029
40
0.19191919191919232
40
0.19393939393939436
40
0.19595959595959639
40
0.19797979797979842
40
0.20000000000000046
40
0.20202020202020249
40
0.20404040404040452
40
0.20606060606060655
40
0.20808080808080859
40
0.21010101010101062
40
0.21212121212121265
40
0.21414141414141469
40
0.21616161616161672
40
0.21818181818181875
40
0.22020202020202079
40
0.22222222222222282
40
0.22424242424242485
40
0.22626262626262689
40
0.22828282828282892
40
0.23030303030303095
40
0.23232323232323299
40
0.23434343434343502
40
0.23636363636363705
40
0.23838383838383909
40
0.24040404040404112
40
0.24242424242424315
40
0.24444444444444519
40
0.24646464646464722
40
0.24848484848484925
40
0.25050505050505129
40
0.25252525252525332
40
0.25454545454545535
40
0.25656565656565739
40
0.25858585858585942
40
0.26060606060606145
40
0.26262626262626348
40
0.26464646464646552
40
0.26666666666666755
40
0.26868686868686958
40
0.27070707070707162
40
0.27272727272727365
40
0.27474747474747568
40
0.27676767676767772
40
0.27878787878787975
40
0.28080808080808178
40
0.28282828282828382
40
0.28484848484848585
40
0.28686868686868788
40
0.28888888888888992
40
0.29090909090909195
40
0.29292929292929398
40
0.29494949494949602
40
0.29696969696969805
40
0.29898989898990008
40
0.30101010101010212
40
0.30303030303030415
40
0.30505050505050618
40
0.30707070707070822
40
0.30909090909091025
40
0.31111111111111228
40
0.31313131313131431
40
0.31515151515151635
40
0.31717171717171838
40
0.31919191919192041
40
0.32121212121212245
40
0.32323232323232448
40
0.32525252525252651
40
0.32727272727272855
40
0.32929292929293058
40
0.33131313131313261
40
0.33333333333333465
40
0.33535353535353668
40
0.33737373737373871
40
0.33939393939394075
40
0.34141414141414278
40
0.34343434343434481
40
0.34545454545454685
40
0.34747474747474888
40
0.34949494949495091
40
0.35151515151515295
40
0.35353535353535498
40
0.35555555555555701
40
0.35757575757575905
40
0.35959595959596108
40
0.36161616161616311
40
0.36363636363636515
40
0.36565656565656718
40
0.36767676767676921
40
0.36969696969697124
40
0.37171717171717328
40
0.37373737373737531
40
0.37575757575757734
40
0.37777777777777938
40
0.37979797979798141
40
0.38181818181818344
40
0.38383838383838548
40
0.38585858585858751
40
0.38787878787878954
40
0.38989898989899158
40
0.39191919191919361
40
0.39393939393939564
40
0.39595959595959768
40
0.39797979797979971
40
0.40000000000000174
40
0.40202020202020378
40
0.40404040404040581
40
0.40606060606060784
40
0.40808080808080988
40
0.41010101010101191
40
0.41212121212121394
40
0.41414141414141598
40
0.41616161616161801
40
0.41818181818182004
40
0.42020202020202208
40
0.42222222222222411
40
0.42424242424242614
40
0.42626262626262817
40
0.42828282828283021
40
0.43030303030303224
40
0.43232323232323427
40
0.43434343434343631
40
0.43636363636363834
40
0.43838383838384037
40
0.44040404040404241
40
0.44242424242424444
40
0.44444444444444647
40
0.44646464646464851
40
0.44848484848485054
40
0.45050505050505257
40
0.45252525252525461
40
0.45454545454545664
40
0.45656565656565867
40
0.45858585858586071
40
0.46060606060606274
40
0.46262626262626477
40
0.46464646464646681
40
0.46666666666666884
40
0.46868686868687087
40
0.47070707070707291
40
0.47272727272727494
40
0.47474747474747697
40
0.47676767676767901
40
0.47878787878788104
40
0.48080808080808307
40
0.4828282828282851
40
0.48484848484848714
40
0.48686868686868917
40
0.4888888888888912
40
0.49090909090909324
40
0.49292929292929527
40
0.4949494949494973
40
0.49696969696969934
40
0.49898989898990137
40
0.50101010101010335
40
0.50303030303030538
40
0.50505050505050741
40
0.50707070707070945
40
0.50909090909091148
40
0.51111111111111351
40
0.51313131313131555
40
0.51515151515151758
40
0.51717171717171961
40
0.51919191919192165
40
0.52121212121212368
40
0.52323232323232571
40
0.52525252525252775
40
0.52727272727272978
40
0.52929292929293181
40
0.53131313131313385
40
0.53333333333333588
40
0.53535353535353791
40
0.53737373737373995
40
0.53939393939394198
40
0.54141414141414401
40
0.54343434343434605
40
0.54545454545454808
40
0.54747474747475011
40
0.54949494949495215
40
0.55151515151515418
40
0.55353535353535621
40
0.55555555555555824
40
0.55757575757576028
40
0.55959595959596231
40
0.56161616161616434
40
0.56363636363636638
40
0.56565656565656841
40
0.56767676767677044
40
0.56969696969697248
40
0.57171717171717451
40
0.57373737373737654
40
0.57575757575757858
40
0.57777777777778061
40
0.57979797979798264
40
0.58181818181818468
40
0.58383838383838671
40
0.58585858585858874
40
0.58787878787879078
40
0.58989898989899281
40
0.59191919191919484
40
0.59393939393939688
40
0.59595959595959891
40
0.59797979797980094
40
0.60000000000000298
40
0.60202020202020501
40
0.60404040404040704
40
0.60606060606060908
40
0.60808080808081111
40
0.61010101010101314
40
0.61212121212121517
40
0.61414141414141721
40
0.61616161616161924
40
0.61818181818182127
40
0.62020202020202331
40
0.62222222222222534
40
0.62424242424242737
40
0.62626262626262941
40
0.62828282828283144
40
0.63030303030303347
40
0.63232323232323551
40
0.63434343434343754
40
0.63636363636363957
40
0.63838383838384161
40
0.64040404040404364
40
0.64242424242424567
40
0.64444444444444771
40
0.64646464646464974
40
0.64848484848485177
40
0.65050505050505381
40
0.65252525252525584
40
0.65454545454545787
40
0.65656565656565991
40
0.65858585858586194
40
0.66060606060606397
40
0.662626262626266
40
0.66464646464646804
40
0.66666666666667007
40
0.6686868686868721
40
0.67070707070707414
40
0.67272727272727617
40
0.6747474747474782
40
0.67676767676768024
40
0.67878787878788227
40
0.6808080808080843
40
0.68282828282828634
40
0.68484848484848837
40
0.6868686868686904
40
0.68888888888889244
40
0.69090909090909447
40
0.6929292929292965
40
0.69494949494949854
40
0.69696969696970057
40
0.6989898989899026
40
0.70101010101010464
40
0.70303030303030667
40
0.7050505050505087
40
0.70707070707071074
40
0.70909090909091277
40
0.7111111111111148
40
0.71313131313131684
40
0.71515151515151887
40
0.7171717171717209
40
0.71919191919192293
40
0.72121212121212497
40
0.723232323232327
40
0.72525252525252903
40
0.72727272727273107
40
0.7292929292929331
40
0.73131313131313513
40
0.73333333333333717
40
0.7353535353535392
40
0.73737373737374123
40
0.73939393939394327
40
0.7414141414141453
40
0.74343434343434733
40
0.74545454545454937
40
0.7474747474747514
40
0.74949494949495343
40
0.75151515151515547
40
0.7535353535353575
40
0.75555555555555953
40
0.75757575757576157
40
0.7595959595959636
40
0.76161616161616563
40
0.76363636363636767
40
0.7656565656565697
40
0.76767676767677173
40
0.76969696969697377
40
0.7717171717171758
40
0.77373737373737783
40
0.77575757575757986
40
0.7777777777777819
40
0.77979797979798393
40
0.78181818181818596
40
0.783838383838388
40
0.78585858585859003
40
0.78787878787879206
40
0.7898989898989941
40
0.79191919191919613
40
0.79393939393939816
40
0.7959595959596002
40
0.79797979797980223
40
0.80000000000000426
40
0.8020202020202063
40
0.80404040404040833
40
0.80606060606061036
40
0.8080808080808124
40
0.81010101010101443
40
0.81212121212121646
40
0.8141414141414185
40
0.81616161616162053
40
0.81818181818182256
40
0.8202020202020246
40
0.82222222222222663
40
0.82424242424242866
40
0.82626262626263069
40
0.82828282828283273
40
0.83030303030303476
40
0.83232323232323679
40
0.83434343434343883
40
0.83636363636364086
40
0.83838383838384289
40
0.84040404040404493
40
0.84242424242424696
40
0.84444444444444899
40
0.84646464646465103
40
0.84848484848485306
40
0.85050505050505509
40
0.85252525252525713
40
0.85454545454545916
40
0.85656565656566119
40
0.85858585858586323
40
0.86060606060606526
40
0.86262626262626729
40
0.86464646464646933
40
0.86666666666667136
40
0.86868686868687339
40
0.87070707070707543
40
0.87272727272727746
40
0.87474747474747949
40
0.87676767676768153
40
0.87878787878788356
40
0.88080808080808559
40
0.88282828282828762
40
0.88484848484848966
40
0.88686868686869169
40
0.88888888888889372
40
0.89090909090909576
40
0.89292929292929779
40
0.89494949494949982
40
0.89696969696970186
40
0.89898989898990389
40
0.90101010101010592
40
0.90303030303030796
40
0.90505050505050999
40
0.90707070707071202
40
0.90909090909091406
40
0.91111111111111609
40
0.91313131313131812
40
0.91515151515152016
40
0.91717171717172219
40
0.91919191919192422
40
0.92121212121212626
40
0.92323232323232829
40
0.92525252525253032
40
0.92727272727273236
40
0.92929292929293439
40
0.93131313131313642
40
0.93333333333333846
40
0.93535353535354049
40
0.93737373737374252
40
0.93939393939394455
40
0.94141414141414659
40
0.94343434343434862
40
0.94545454545455065
40
0.94747474747475269
40
0.94949494949495472
40
0.95151515151515675
40
0.95353535353535879
40
0.95555555555556082
40
0.95757575757576285
40
0.95959595959596489
40
0.96161616161616692
40
0.96363636363636895
40
0.96565656565657099
40
0.96767676767677302
40
0.96969696969697505
40
0.97171717171717709
40
0.97373737373737912
40
0.97575757575758115
40
0.97777777777778319
40
0.97979797979798522
40
0.98181818181818725
40
0.98383838383838929
40
0.98585858585859132
40
0.98787878787879335
40
0.98989898989899539
40
0.99191919191919742
40
0.99393939393939945
40
0.99595959595960148
40
0.99797979797980352
40
1
40
1
40
1
40
1
40
1
40
1
41
1
41
1
41
1
41
1
41
1
41
1
41
1
41
1
41
1
41
1
41
1
41
1
41
1
41
1
41
1
41
1
41
1
41
1
41
1
41
1
41
1
41
1
41
1
41
1
41
1
41
1
41
1
41
1
41
1
41
1
41
1
41
1
41
1
41
1
41
1
41
1
41
1
41
1
41
1
41
1
41
1
41
1
41
1
41
1
41
1
41
1
41
1
41
1
41
1
41
1
41
1
41
1
41
1
41
1
41
1
41
1
41
1
41
1
41
1
41
1
41
1
41
1
41
1
41
1
41
1
41
1
41
1
41
1
41
1
41
1
41
1
41
1
41
1
41
1
41
1
41
1
41
1
41
1
41
1
41
1
41
1
41
1
41
1
41
1
41
1
41
1
41
1
41
1
41
1
41
1
41
1
41
1
41
1
41
1
41
1
41
1
41
1
41
1
41
1
41
1
41
1
41
1
41
1
41
1
41
1
41
1
41
1
41
1
41
1
41
1
41
1
41
1
41
1
41
1
41
1
41
1
41
1
41
1
41
1
41
1
41
1
41
1
41
1
41
1
41
1
41
1
41
1
41
1
41
1
41
1
41
1
41
1
41
1
41
1
41
1
41
1
41
1
41
1
41
1
41
1
41
1
41
1
41
1
41
1
41
1
41
1
41
1
41
1
41
1
41
1
41
1
41
1
41
1
41
1
41
1
41
1
41
1
41
1
41
1
41
1
41
1
41
1
41
1
41
1
41
1
41
1
41
1
41
1
41
1
41
1
41
1
41
1
41
1
41
1
41
1
41
1
41
1
41
1
41
1
41
1
41
1
41
1
41
1
41
1
41
1
41
1
41
1
41
1
41
1
41
1
41
1
41
1
41
1
41
1
41
1
41
1
41
1
41
1
41
1
41
1
41
1
41
1
41
1
41
1
41
1
41
1
41
1
41
1
41
1
41
1
41
1
41
1
41
1
41
1
41
1
41
1
41
1
41
1
41
1
41
1
41
1
41
1
41
1
41
1
41
1
41
1
41
1
41
1
41
1
41
1
41
1
41
1
41
1
41
1
41
1
41
1
41
1
41
1
41
1
41
1
41
1
41
1
41
1
41
1
41
1
41
1
41
1
41
1
41
1
41
1
41
1
41
1
41
1
41
1
41
1
41
1
41
1
41
1
41
1
41
1
41
1
41
1
41
1
41
1
41
1
41
1
41
1
41
1
41
1
41
1
41
1
41
1
41
1
41
1
41
1
41
1
41
1
41
1
41
1
41
1
41
1
41
1
41
1
41
1
41
1
41
1
41
1
41
1
41
1
41
1
41
1
41
1
41
1
41
1
41
1
41
1
41
1
41
1
41
1
41
1
41
1
41
1
41
1
41
1
41
1
41
1
41
1
41
1
41
1
41
1
41
1
41
1
41
1
41
1
41
1
41
1
41
1
41
1
41
1
41
1
41
1
41
1
41
1
41
1
41
1
41
1
41
1
41
1
41
1
41
1
41
1
41
1
41
1
41
1
41
1
41
1
41
1
41
1
41
1
41
1
41
1
41
1
41
1
41
1
41
1
41
1
41
1
41
1
41
1
41
1
41
1
41
1
41
1
41
1
41
1
41
1
41
1
41
1
41
1
41
1
41
1
41
1
41
1
41
1
41
1
41
1
41
1
41
1
41
1
41
1
41
1
41
1
41
1
41
1
41
1
41
1
41
1
41
1
41
1
41
1
41
1
41
1
41
1
41
1
41
1
41
1
41
1
41
1
41
1
41
1
41
1
41
1
41
1
41
1
41
1
41
1
41
1
41
1
41
1
41
1
41
1
41
1
41
1
41
1
41
1
41
1
41
1
41
1
41
1
41
1
41
1
41
1
41
1
41
1
41
1
41
1
41
1
41
1
41
1
41
1
41
1
41
1
41
1
41
1
41
1
41
1
41
1
41
1
41
1
41
1
41
1
41
1
41
1
41
1
41
1
41
1
41
1
41
1
41
1
41
1
41
1
41
1
41
1
41
1
41
1
41
1
41
1
41
1
41
1
41
1
41
1
41
1
41
1
41
1
41
1
41
1
41
1
41
1
41
1
41
1
41
1
41
1
41
1
41
1
41
1
41
1
41
1
41
1
41
1
41
1
41
1
41
1
41
1
41
1
41
1
41
1
41
1
41
1
41
1
41
1
41
1
41
1
41
1
41
1
41
1
41
1
41
1
41
1
41
1
41
1
41
1
41
1
41
1
41
1
41
1
41
1
41
1
41
1
41
1
41
1
10
-25.480167841302848
20
10.023178415959183
30
0
10
-25.451925460954918
20
10.007471897635877
30
0
10
-25.376841692524984
20
9.9792323108967089
30
0
10
-25.209383128340516
20
9.9462729522682807
30
0
10
-24.882205204019698
20
9.9202299394424305
30
0
10
-24.322299886170178
20
9.9135337729384503
30
0
10
-23.639784082139059
20
9.9273198836217222
30
0
10
-22.867341070270122
20
9.9551603202982459
30
0
10
-22.040283784381039
20
9.9899168630594151
30
0
10
-21.194831091970663
20
10.024083172902083
30
0
10
-20.366366851828666
20
10.050127388589088
30
0
10
-19.587738993703844
20
10.060833667774276
30
0
10
-18.8874655176059
20
10.049646186182136
30
0
10
-18.288157416336109
20
10.01100742674547
30
0
10
-17.80441542837772
20
9.9407104590977831
30
0
10
-17.442503093037786
20
9.8362017348889044
30
0
10
-17.202521029976449
20
9.696795027545436
30
0
10
-17.080030211498539
20
9.5239300883142235
30
0
10
-17.067778712693606
20
9.3213635321209392
30
0
10
-17.157668711121318
20
9.0955075797188627
30
0
10
-17.341692020921982
20
8.8553181268595367
30
0
10
-17.610217443199044
20
8.611090620830975
30
0
10
-17.950836080310136
20
8.3734803401000431
30
0
10
-18.346910986387016
20
8.1524110174388689
30
0
10
-18.776423431596633
20
7.9560832637301351
30
0
10
-19.210243883805752
20
7.7898030296743928
30
0
10
-19.614649914061747
20
7.656117048929751
30
0
10
-19.954628881074818
20
7.555194569012591
30
0
10
-20.196946435117937
20
7.4851247369419021
30
0
10
-20.313229277188181
20
7.4422473038429331
30
0
10
-20.283242196732655
20
7.4214738557426374
30
0
10
-20.097481195514124
20
7.4165982160932611
30
0
10
-19.756324809723068
20
7.4205130106134494
30
0
10
-19.269609196015779
20
7.4254429513723039
30
0
10
-18.656100962843002
20
7.4231641988582631
30
0
10
-17.942871288073384
20
7.4052465111350898
30
0
10
-17.165065071128168
20
7.3632438873546038
30
0
10
-16.364079325400681
20
7.2890753645861306
30
0
10
-15.584236476659932
20
7.1755819485818737
30
0
10
-14.869866478115885
20
7.0170372762940394
30
0
10
-14.262237039094686
20
6.8096723863539674
30
0
10
-13.796513217347169
20
6.5522056894651737
30
0
10
-13.498786908844057
20
6.2463448018186272
30
0
10
-13.382883909047006
20
5.8973609014518402
30
0
10
-13.447714730655711
20
5.5144911682263018
30
0
10
-13.673299489370299
20
5.1117580953098107
30
0
10
-14.021133535618095
20
4.7074255414112756
30
0
10
-14.4420085122073
20
4.3211150740440605
30
0
10
-14.882155220529096
20
3.9714473584880694
30
0
10
-15.290037108586061
20
3.6734832469515561
30
0
10
-15.622920106707948
20
3.4362257645696008
30
0
10
-15.853412695707419
20
3.2601528300962999
30
0
10
-15.976308225271634
20
3.1346059427516653
30
0
10
-16.014718764626501
20
3.0354977588704344
30
0
10
-15.995783472460285
20
2.9382706134235543
30
0
10
-15.917117969814662
20
2.8352361569064644
30
0
10
-15.753065031610499
20
2.7343940854631086
30
0
10
-15.487389283174501
20
2.6466569814221397
30
0
10
-15.127671357953506
20
2.5797759232434645
30
0
10
-14.696015465578586
20
2.5391475524144234
30
0
10
-14.223736798059504
20
2.5275652582103891
30
0
10
-13.744577478213769
20
2.5453780541668065
30
0
10
-13.288387668174387
20
2.5904613203061109
30
0
10
-12.874986223396887
20
2.6583032882916418
30
0
10
-12.506936718855226
20
2.7419490176992922
30
0
10
-12.173523912742164
20
2.8329924294773634
30
0
10
-11.856451400876026
20
2.9227183936002348
30
0
10
-11.534935318656188
20
3.0031932643669585
30
0
10
-11.191044332745188
20
3.0683753377904885
30
0
10
-10.814952460782639
20
3.115220951765429
30
0
10
-10.410179615348955
20
3.1447812599983207
30
0
10
-9.9894094025276718
20
3.161043161249848
30
0
10
-9.570307913774176
20
3.1697737401398252
30
0
10
-9.1714521948657488
20
3.1773808742644443
30
0
10
-8.8079625882430967
20
3.1897275301358974
30
0
10
-8.4878457178502487
20
3.2110581882439728
30
0
10
-8.2065545507996411
20
3.2426441229498244
30
0
10
-7.9497301606368733
20
3.2827000004491627
30
0
10
-7.7005310065668713
20
3.3269566174821956
30
0
10
-7.4452478533965465
20
3.3690777047913834
30
0
10
-7.1802928705117335
20
3.4010332956090013
30
0
10
-6.9166288213823908
20
3.413822298791704
30
0
10
-6.6704549292398418
20
3.4008664499352341
30
0
10
-6.4557930936594863
20
3.3608150699449491
30
0
10
-6.2756917619033938
20
3.3011381526099854
30
0
10
-6.1158287931768518
20
3.2398446852795164
30
0
10
-5.9575884568212523
20
3.1918761814873937
30
0
10
-5.7903943280210068
20
3.1554810244325084
30
0
10
-5.6224713171342291
20
3.1015657416946851
30
0
10
-5.4701106804710236
20
2.9954556059576882
30
0
10
-5.3479359512818103
20
2.8180635959196416
30
0
10
-5.2605663365678144
20
2.5823637477682988
30
0
10
-5.205996318675882
20
2.316815301049004
30
0
10
-5.1774666233184332
20
2.0536300364701763
30
0
10
-5.1659317483513822
20
1.813645724064884
30
0
10
-5.1622771830850889
20
1.5972798858551154
30
0
10
-5.1602348953359272
20
1.394845605199809
30
0
10
-5.158644477698636
20
1.1931958673574423
30
0
10
-5.1651153251970916
20
0.98520650424055767
30
0
10
-5.1942284150385101
20
0.77205125667731656
30
0
10
-5.2617238430789293
20
0.56061728803648336
30
0
10
-5.3797302581443933
20
0.36233271385628363
30
0
10
-5.5518897096815696
20
0.19132719538551629
30
0
10
-5.7739263758779868
20
0.060701254951401717
30
0
10
-6.0339863148197992
20
-0.021005630332479409
30
0
10
-6.3127484496973132
20
-0.053791309448294466
30
0
10
-6.5845713710802789
20
-0.048895499013500113
30
0
10
-6.8263056555686363
20
-0.023301640216910086
30
0
10
-7.0248582060599327
20
0.0047753277747906954
30
0
10
-7.1860513482337964
20
0.020945819957132378
30
0
10
-7.3407143316805534
20
0.019004667234864728
30
0
10
-7.5253734570838198
20
-0.0012194434672775849
30
0
10
-7.7627656545839638
20
-0.035502130782170571
30
0
10
-8.0474237574343572
20
-0.077248633034511502
30
0
10
-8.3580483564670178
20
-0.12014448074624857
30
0
10
-8.6666175993695571
20
-0.16100642329005527
30
0
10
-8.9478606013051536
20
-0.20200715792170643
30
0
10
-9.1908105033265102
20
-0.25451512924301001
30
0
10
-9.3994832156511272
20
-0.33611523363200302
30
0
10
-9.5852517439512379
20
-0.46218904858623816
30
0
10
-9.7621141034362431
20
-0.64002254996524999
30
0
10
-9.9397303263899452
20
-0.85965927808106413
30
0
10
-10.122687548759261
20
-1.0974065159330233
30
0
10
-10.312534818277019
20
-1.3255757917833058
30
0
10
-10.508955407143183
20
-1.5201789936594308
30
0
10
-10.711334176775003
20
-1.6697116371354215
30
0
10
-10.920046925028377
20
-1.7827961407669175
30
0
10
-11.135156922293771
20
-1.879946626911146
30
0
10
-11.355227860169466
20
-1.9860294562163048
30
0
10
-11.576041606726177
20
-2.1223688926112123
30
0
10
-11.789495676005185
20
-2.2992699635756808
30
0
10
-11.986297576635582
20
-2.5179488949475353
30
0
10
-12.158710427383392
20
-2.7721235107401023
30
0
10
-12.302943270423865
20
-3.0498473946906293
30
0
10
-12.422493185192511
20
-3.3349607680677957
30
0
10
-12.528202496269753
20
-3.6096964917991157
30
0
10
-12.633799778164235
20
-3.8587198734148904
30
0
10
-12.752426879488112
20
-4.0730100524503934
30
0
10
-12.893024808660613
20
-4.2533913085139261
30
0
10
-13.056104788343179
20
-4.4153017549248839
30
0
10
-13.236252747757781
20
-4.5824645175619203
30
0
10
-13.426079544180494
20
-4.7781008986018838
30
0
10
-13.619344992463541
20
-5.0177908522293793
30
0
10
-13.815219300026289
20
-5.2996883064643088
30
0
10
-14.017428022807266
20
-5.6073112145451116
30
0
10
-14.231501757945466
20
-5.9170464762568153
30
0
10
-14.462643503665015
20
-6.2041154536478107
30
0
10
-14.713329310700516
20
-6.4492030947259371
30
0
10
-14.981045350861702
20
-6.6447504017048491
30
0
10
-15.255904790548399
20
-6.801536479767277
30
0
10
-15.524542476294673
20
-6.9406836593716665
30
0
10
-15.774102883418053
20
-7.0854611401911916
30
0
10
-15.996150449623158
20
-7.2532370468519574
30
0
10
-16.190713339498402
20
-7.4471944350410677
30
0
10
-16.369996135908242
20
-7.648623160703492
30
0
10
-16.551951960459938
20
-7.8273968379219205
30
0
10
-16.7538953770534
20
-7.9522755418321509
30
0
10
-16.986542062675124
20
-8.0006840569780859
30
0
10
-17.246725602254653
20
-7.9702292486406412
30
0
10
-17.521620552949873
20
-7.8752594679564627
30
0
10
-17.795403154523076
20
-7.7405643101209529
30
0
10
-18.0544509954542
20
-7.5962871909131744
30
0
10
-18.294605995804091
20
-7.4718186326806144
30
0
10
-18.52214983902789
20
-7.3919778036460411
30
0
10
-18.746608261442901
20
-7.3755882902422973
30
0
10
-18.976199100626857
20
-7.4337437747644577
30
0
10
-19.210868170744725
20
-7.5675585132092591
30
0
10
-19.441269796980958
20
-7.7684881745248848
30
0
10
-19.654345802950505
20
-8.0219471943597949
30
0
10
-19.837488892695806
20
-8.3101612794797237
30
0
10
-19.982762598784923
20
-8.6151514645528593
30
0
10
-20.092377719034616
20
-8.9221071664075495
30
0
10
-20.177826636001129
20
-9.2205556011553931
30
0
10
-20.254788167321006
20
-9.5039685493535746
30
0
10
-20.339109224307585
20
-9.7698833600833979
30
0
10
-20.442765622529752
20
-10.019713359391977
30
0
10
-20.568770270442709
20
-10.258937417964141
30
0
10
-20.711709005340264
20
-10.495927065122304
30
0
10
-20.861561687480812
20
-10.740034979468685
30
0
10
-21.006498363185877
20
-10.999914715862333
30
0
10
-21.136122202903639
20
-11.281731199588915
30
0
10
-21.244459439583888
20
-11.587454822091381
30
0
10
-21.328912225933202
20
-11.915277728962003
30
0
10
-21.389261712308283
20
-12.26002476764911
30
0
10
-21.426630937231685
20
-12.613517554280547
30
0
10
-21.442518191560719
20
-12.965068537038844
30
0
10
-21.437666275704224
20
-13.301644737812055
30
0
10
-21.411610097994025
20
-13.60938214568151
30
0
10
-21.362733846026849
20
-13.87597071942259
30
0
10
-21.28812020884542
20
-14.092897351934583
30
0
10
-21.183612638907434
20
-14.257492572803184
30
0
10
-21.043460121668254
20
-14.375723349685659
30
0
10
-20.863309931105047
20
-14.457650507060899
30
0
10
-20.643153603780409
20
-14.512444325569891
30
0
10
-20.391291529531685
20
-14.542432654419992
30
0
10
-20.122195530719335
20
-14.543848615610766
30
0
10
-19.851603260006641
20
-14.510512717947897
30
0
10
-19.592967749530647
20
-14.436345704197866
30
0
10
-19.352262731924256
20
-14.318872637450575
30
0
10
-19.127867594986263
20
-14.160259548239054
30
0
10
-18.914846623381759
20
-13.966334902990063
30
0
10
-18.708030520418351
20
-13.74616154473744
30
0
10
-18.505555059379454
20
-13.51138186934727
30
0
10
-18.312302015978542
20
-13.275670429986198
30
0
10
-18.135437714272097
20
-13.052110019160335
30
0
10
-17.97944023939818
20
-12.850361931572836
30
0
10
-17.841891819121578
20
-12.674258416716746
30
0
10
-17.707583405616507
20
-12.518391312731472
30
0
10
-17.548166762199841
20
-12.368049530277862
30
0
10
-17.33022189519847
20
-12.204251250637864
30
0
10
-17.021305371844687
20
-12.007552996183893
30
0
10
-16.596862935686236
20
-11.762382451804545
30
0
10
-16.046635964088573
20
-11.461064079347716
30
0
10
-15.372569945483276
20
-11.102666174707883
30
0
10
-14.586813903339149
20
-10.691903566498269
30
0
10
-13.709689740708349
20
-10.23802184733896
30
0
10
-12.767674685999825
20
-9.7536896916142073
30
0
10
-11.791377651724403
20
-9.2538872756791779
30
0
10
-10.813519871324239
20
-8.754797689246514
30
0
10
-9.8669102356921794
20
-8.2726942277655198
30
0
10
-8.9824311439892277
20
-7.8228361474965507
30
0
10
-8.1870007168490559
20
-7.4183452500258964
30
0
10
-7.5015893893286396
20
-7.0691266864155065
30
0
10
-6.9391100145903426
20
-6.7806869576185633
30
0
10
-6.5026022223707187
20
-6.5531911918690042
30
0
10
-6.1827098981549113
20
-6.3799459703452346
30
0
10
-5.9573467463660545
20
-6.2476558192113583
30
0
10
-5.7967367411583552
20
-6.1409686636390717
30
0
10
-5.667404364349359
20
-6.0462535686322836
30
0
10
-5.5365956863578711
20
-5.9555452730198377
30
0
10
-5.3764917748867926
20
-5.8707782941169908
30
0
10
-5.1671720484023229
20
-5.7991910992833864
30
0
10
-4.8989589923221386
20
-5.7486940048090673
30
0
10
-4.5760944052961854
20
-5.7224060697757562
30
0
10
-4.2140117342588548
20
-5.7180277406915083
30
0
10
-3.8338035824725338
20
-5.7294169444721224
30
0
10
-3.4575513864288658
20
-5.747457056164313
30
0
10
-3.1033692150719427
20
-5.7612222317323933
30
0
10
-2.7803988265937365
20
-5.7590088312267538
30
0
10
-2.484306851097013
20
-5.7294415093465156
30
0
10
-2.2035830238196281
20
-5.6628780487642674
30
0
10
-1.925441761399282
20
-5.5528282394205162
30
0
10
-1.6416753363096028
20
-5.3973304038657508
30
0
10
-1.3549876354185895
20
-5.200431103251006
30
0
10
-1.0838103034717415
20
-4.9733736916606235
30
0
10
-0.85164248377644591
20
-4.7325915038089486
30
0
10
-0.67728638309504086
20
-4.4980099799506768
30
0
10
-0.5653221352479072
20
-4.2910999884846728
30
0
10
-0.49513985618539103
20
-4.1333384371293169
30
0
10
-0.41422548404331117
20
-4.0437137779867882
30
0
10
-0.26576436383653185
20
-4.0315847123520445
30
0
10
-0.01989346132851437
20
-4.0874068029803681
30
0
10
0.320709222936715
20
-4.184058626087193
30
0
10
0.73296808027465576
20
-4.2852446299097267
30
0
10
1.1801147989359841
20
-4.3516869883476863
30
0
10
1.6207889075426898
20
-4.3484087968591778
30
0
10
2.016768713672394
20
-4.2511343562230453
30
0
10
2.3421936742604581
20
-4.0541633878091652
30
0
10
2.5836619920170261
20
-3.7673489335307182
30
0
10
2.7387837466141898
20
-3.4111690885762518
30
0
10
2.8152837968568361
20
-3.0124374120755446
30
0
10
2.8298343248950704
20
-2.5997969968532453
30
0
10
2.8070981905759367
20
-2.199184862000084
30
0
10
2.7784082782587372
20
-1.8296608147240128
30
0
10
2.7765084951406411
20
-1.5040942713166152
30
0
10
2.8306314935902437
20
-1.2295132651577596
30
0
10
2.9613100752881882
20
-1.0075656489498239
30
0
10
3.175621057877096
20
-0.83497028561607123
30
0
10
3.4613923639891069
20
-0.7038722368153415
30
0
10
3.793600996423252
20
-0.60358200318095767
30
0
10
4.1418477743114677
20
-0.5224186777177543
30
0
10
4.4778053786328007
20
-0.44960207132440011
30
0
10
4.7818654113261641
20
-0.37692808759088098
30
0
10
5.0521847648438678
20
-0.30103340562598718
30
0
10
5.3019378947489368
20
-0.22281086253882854
30
0
10
5.5507058098234747
20
-0.14541896573037141
30
0
10
5.8178770499573513
20
-0.072762859277155645
30
0
10
6.1148440919201779
20
-0.0077154818573524769
30
0
10
6.4387800642696362
20
0.049366080750706282
30
0
10
6.7779779954057142
20
0.10018266632638842
30
0
10
7.116192870778657
20
0.14817784412750151
30
0
10
7.4375100543491426
20
0.19818675757312382
30
0
10
7.7306477519930166
20
0.25605927272036794
30
0
10
7.9944011473711027
20
0.32840394767220343
30
0
10
8.2350765593008219
20
0.42126169452941531
30
0
10
8.4619423174249544
20
0.53838791996238244
30
0
10
8.6837787195808875
20
0.67994531102058764
30
0
10
8.90398249801191
20
0.84037528666592154
30
0
10
9.1197952628877381
20
1.0089329664872884
30
0
10
9.3274501459462993
20
1.174161733174421
30
0
10
9.525842146588138
20
1.3273658593089468
30
0
10
9.7209366134503217
20
1.4666143018524389
30
0
10
9.9294604254784478
20
1.6001604420992408
30
0
10
10.174511941436162
20
1.7426674972863354
30
0
10
10.4816227322467
20
1.9118419768580972
30
0
10
10.874503750745086
20
2.1247893432955829
30
0
10
11.371262522423233
20
2.3947743603207892
30
0
10
11.97957085070831
20
2.7270870202167448
30
0
10
12.696315700042291
20
3.1187227213046032
30
0
10
13.509918632361085
20
3.5603320758161265
30
0
10
14.401843505187106
20
4.0374803859801371
30
0
10
15.348439875060599
20
4.5321926448478971
30
0
10
16.322642061617376
20
5.0243757798859612
30
0
10
17.295730736581596
20
5.4932941344685933
30
0
10
18.239066337270323
20
5.9190208910638722
30
0
10
19.125837368701223
20
6.283902431007383
30
0
10
19.932795899889587
20
6.5740112145278404
30
0
10
20.642013600000602
20
6.7806175442230305
30
0
10
21.242594365664242
20
6.9016211697676368
30
0
10
21.732486556311443
20
6.9430751847608327
30
0
10
22.120061891445349
20
6.9204937436149896
30
0
10
22.426311990275888
20
6.8607303423293899
30
0
10
22.679024720615473
20
6.7965761814168086
30
0
10
22.905880612996761
20
6.7604473251100998
30
0
10
23.128394536329701
20
6.778684116936061
30
0
10
23.35443470851153
20
6.8649271244410031
30
0
10
23.574623994964547
20
7.0159299336478451
30
0
10
23.77327882545805
20
7.2164175063309948
30
0
10
23.937054598961851
20
7.4425318937574394
30
0
10
24.064615742131139
20
7.6658797541760491
30
0
10
24.175475409457796
20
7.8572227031874577
30
0
10
24.297464548653259
20
7.9932218335058796
30
0
10
24.456127621275513
20
8.0619276535940561
30
0
10
24.660592003071788
20
8.0711109513166672
30
0
10
24.902311359002439
20
8.0457461637524545
30
0
10
25.165223567346693
20
8.0155666685416769
30
0
10
25.43223685820346
20
8.0061617972722949
30
0
10
25.694376670547868
20
8.0267675215911254
30
0
10
25.949825190422864
20
8.074131886267903
30
0
10
26.200892236746284
20
8.1402972101862616
30
0
10
26.4517488338197
20
8.2182938822243887
30
0
10
26.705658482675471
20
8.3105368797960502
30
0
10
26.963181938025819
20
8.4287189157448115
30
0
10
27.221203039569239
20
8.5863608639103148
30
0
10
27.471606672370182
20
8.7930887503650759
30
0
10
27.700380825493337
20
9.0488480556780981
30
0
10
27.885809542919237
20
9.3364883186321954
30
0
10
28.002192964477523
20
9.6266496860956057
30
0
10
28.025317541044362
20
9.8865351643082082
30
0
10
27.937031988147023
20
10.086945829814155
30
0
10
27.730905998617533
20
10.21102475974269
30
0
10
27.415195062538483
20
10.259179322195152
30
0
10
27.008181368978171
20
10.243478949127553
30
0
10
26.534840354671658
20
10.183874495743236
30
0
10
26.023009866749312
20
10.103731750936952
30
0
10
25.49971443503599
20
10.025585791718875
30
0
10
24.987557456287263
20
9.966969479967446
30
0
10
24.500723766609752
20
9.9357573344745624
30
0
10
24.045964901651452
20
9.9317658966070397
30
0
10
23.624153992146553
20
9.949069934131229
30
0
10
23.231637685286486
20
9.9780646329680298
30
0
10
22.861671696529513
20
10.007630066482733
30
0
10
22.505824585238404
20
10.027262636177561
30
0
10
22.155385083963537
20
10.029194760832478
30
0
10
21.802795427960429
20
10.010591146358088
30
0
10
21.441832309538789
20
9.9724020099750064
30
0
10
21.067754304056827
20
9.9181144911874686
30
0
10
20.677456769049854
20
9.8525558802538296
30
0
10
20.269634813710852
20
9.780642741104975
30
0
10
19.844916599589645
20
9.7062288861976285
30
0
10
19.406078534640116
20
9.6307119060897417
30
0
10
18.957599639081955
20
9.5535451152908557
30
0
10
18.505093200087295
20
9.4731019559548511
30
0
10
18.054776959789418
20
9.3874297021788902
30
0
10
17.612936371226024
20
9.2950235154141918
30
0
10
17.185369461524239
20
9.1956522637791309
30
0
10
16.776889617599299
20
9.0910205325331486
30
0
10
16.390678160669065
20
8.9858559166783447
30
0
10
16.028262897432469
20
8.8872177028572032
30
0
10
15.68993419657269
20
8.8025390019586816
30
0
10
15.375029876584401
20
8.7380848884296292
30
0
10
15.08227823299026
20
8.6971475960928739
30
0
10
14.810106507552172
20
8.6785678489690099
30
0
10
14.556992353078007
20
8.6745482581385343
30
0
10
14.321390916808973
20
8.674304048109402
30
0
10
14.101438421171718
20
8.6690447539993762
30
0
10
13.895007402967938
20
8.6559928989601449
30
0
10
13.698947062368028
20
8.6440613883071578
30
0
10
13.513278211843161
20
8.6482912851655787
30
0
10
13.344817111745847
20
8.6830194818135613
30
0
10
13.214059711896464
20
8.7538294423096232
30
0
10
13.144397963642231
20
8.8584391771048594
30
0
10
13.133511709188497
20
8.9957738633245086
30
0
10
13.145298185165688
20
9.1672441679445331
30
0
10
13.145609849543805
20
9.3659701783682294
30
0
10
13.143047865316822
20
9.560782236813937
30
0
10
13.181533171618113
20
9.7089819824772103
30
0
10
13.299883225958911
20
9.7851996590207264
30
0
10
13.494580031518442
20
9.8138652475887032
30
0
10
13.725319653593949
20
9.8483917577994333
30
0
10
13.936324814357885
20
9.9384323421095484
30
0
10
14.071680410073723
20
10.09158420744221
30
0
10
14.094044424262894
20
10.275745801416122
30
0
10
13.997847269112526
20
10.452977565629173
30
0
10
13.833101234595759
20
10.611280933417389
30
0
10
13.683312115072903
20
10.763564155736304
30
0
10
13.625203119296629
20
10.928120833829658
30
0
10
13.686460501838749
20
11.112193406353452
30
0
10
13.828718908459887
20
11.30355320332894
30
0
10
13.992082235120904
20
11.486277875678057
30
0
10
14.124655610747618
20
11.650452262069145
30
0
10
14.222553757431589
20
11.806144388342609
30
0
10
14.30924146556044
20
11.973013616594949
30
0
10
14.412209237009845
20
12.169167195294552
30
0
10
14.535025093016792
20
12.397412818893869
30
0
10
14.654646852499349
20
12.644660908611707
30
0
10
14.739733225865248
20
12.892189077139291
30
0
10
14.761401772198699
20
13.121935556896769
30
0
10
14.710370675318229
20
13.326281138108357
30
0
10
14.599268788105299
20
13.509486768701723
30
0
10
14.448066080602125
20
13.679550948719271
30
0
10
14.273963510763277
20
13.842600228233955
30
0
10
14.078835117321679
20
13.995896121124375
30
0
10
13.855649546204109
20
14.1312309326951
30
0
10
13.595898999567591
20
14.238817072343002
30
0
10
13.295932131769664
20
14.310695623586509
30
0
10
12.96561171203604
20
14.345125124751569
30
0
10
12.625083541482422
20
14.345976636048762
30
0
10
12.297329194985283
20
14.320305153376944
30
0
10
12.001676982955489
20
14.276436867290522
30
0
10
11.747841855746056
20
14.222016071085138
30
0
10
11.52741356425863
20
14.161632764337304
30
0
10
11.317396467439435
20
14.096667759880248
30
0
10
11.092180699400023
20
14.026645422260884
30
0
10
10.831946676366721
20
13.950056748688251
30
0
10
10.534997585245044
20
13.865577693236535
30
0
10
10.215800808488764
20
13.77221082071809
30
0
10
9.8966586212133301
20
13.668985238843748
30
0
10
9.6010023282421262
20
13.554772653019661
30
0
10
9.3468168726411367
20
13.428097633804708
30
0
10
9.138007597803707
20
13.286846174588447
30
0
10
8.9656963532085125
20
13.128460801651148
30
0
10
8.8173484084894653
20
12.950411029610471
30
0
10
8.6826333739562784
20
12.75071061459264
30
0
10
8.5628819143145414
20
12.528106407097086
30
0
10
8.4690316324403234
20
12.283934590465797
30
0
10
8.410352270958521
20
12.026061515590527
30
0
10
8.3874719421299169
20
11.770956924427757
30
0
10
8.379871390585917
20
11.549419625887396
30
0
10
8.3488584800155898
20
11.400817756526767
30
0
10
8.2579572012621796
20
11.355079811974079
30
0
10
8.0935926243697462
20
11.412780956369417
30
0
10
7.868623229220888
20
11.544446049554427
30
0
10
7.6072514594295786
20
11.709861324834387
30
0
10
7.3356071429555296
20
11.871154308331908
30
0
10
7.0690285551445422
20
12.009921467310271
30
0
10
6.8133575814867857
20
12.123160445697714
30
0
10
6.5673783109862685
20
12.217152963290461
30
0
10
6.3248357990552337
20
12.302284136149256
30
0
10
6.0767280319616521
20
12.386915735638622
30
0
10
5.813173037795206
20
12.473393644357502
30
0
10
5.524147923191868
20
12.56034107688782
30
0
10
5.200434922864364
20
12.643922256928732
30
0
10
4.8344405500248255
20
12.719448060265247
30
0
10
4.421177476862483
20
12.782984098831076
30
0
10
3.9588319649451864
20
12.832487202972851
30
0
10
3.4481877928733158
20
12.867339284919289
30
0
10
2.8922543303346453
20
12.888177533286749
30
0
10
2.2958141485623615
20
12.896607091808857
30
0
10
1.6650049045202628
20
12.89496384694746
30
0
10
1.0068867812545743
20
12.886055889482435
30
0
10
0.32901557841626039
20
12.872913689929753
30
0
10
-0.36098521906423814
20
12.858537655997806
30
0
10
-1.0558552320503169
20
12.845644148293685
30
0
10
-1.7491174520434871
20
12.836419665707501
30
0
10
-2.4351811415887075
20
12.832531024163703
30
0
10
-3.109455092091288
20
12.835127207361046
30
0
10
-3.768456757703591
20
12.844844387467331
30
0
10
-4.4099237649616665
20
12.861809461588134
30
0
10
-5.0329230555828941
20
12.88564450041754
30
0
10
-5.6379642876236442
20
12.915470119615511
30
0
10
-6.227104005378667
20
12.949910857107858
30
0
10
-6.8040711176203805
20
12.987096054393618
30
0
10
-7.3743427211794463
20
13.024671139935185
30
0
10
-7.9453440641804862
20
13.05978292710401
30
0
10
-8.526070511745349
20
13.089185862564239
30
0
10
-9.1264147776967963
20
13.109409949037005
30
0
10
-9.7565864480849349
20
13.116909351495366
30
0
10
-10.426492982453457
20
13.108219072399601
30
0
10
-11.145137771116794
20
13.080108038858008
30
0
10
-11.920009589390244
20
13.029734036046163
30
0
10
-12.756478600285048
20
12.954797166945687
30
0
10
-13.657182787909486
20
12.853695559993678
30
0
10
-14.621433986484778
20
12.725676413254591
30
0
10
-15.644579254561798
20
12.570997699886039
30
0
10
-16.717465678200483
20
12.39106517033003
30
0
10
-17.825655328142172
20
12.188629039198819
30
0
10
-18.949454652876017
20
11.967786117591819
30
0
10
-20.065364015233843
20
11.733642695527848
30
0
10
-21.147207199844324
20
11.492053876782521
30
0
10
-22.167389417281605
20
11.24933221992068
30
0
10
-23.098100326523333
20
11.011969516049206
30
0
10
-23.912540697967628
20
10.786352921792037
30
0
10
-24.586138916199999
20
10.578483522083133
30
0
10
-25.097771911989547
20
10.393693838014704
30
0
10
-25.430984272806665
20
10.236365772494816
30
0
10
-25.546363467935112
20
10.13499182813808
30
0
10
-25.546295974612505
20
10.073471420836423
30
0
10
-25.508410221650703
20
10.038884934282441
30
0
10
-25.480167841302848
20
10.023178415959183
30
0
0
ENDSEC
0
SECTION
2
OBJECTS
0
DICTIONARY
5
C
100
AcDbDictionary
3
ACAD_GROUP
350
D
3
ACAD_MLINESTYLE
350
17
0
DICTIONARY
5
D
100
AcDbDictionary
0
DICTIONARY
5
1A
330
C
100
AcDbDictionary
0
DICTIONARY
5
17
100
AcDbDictionary
0
ENDSEC
0
EOF
