0
SECTION
2
HEADER
9
$INSUNITS
70
4
9
$ACADVER
1
AC1014
9
$HANDSEED
5
FFFF
0
ENDSEC
0
SECTION
2
TABLES
0
TABLE
2
VPORT
5
8
100
AcDbSymbolTable
0
ENDTAB
0
TABLE
2
LTYPE
5
5
100
AcDbSymbolTable
0
LTYPE
5
14
100
AcDbSymbolTableRecord
100
AcDbLinetypeTableRecord
2
BYBLOCK
70
0
0
LTYPE
5
15
100
AcDbSymbolTableRecord
100
AcDbLinetypeTableRecord
2
BYLAYER
70
0
0
LTYPE
5
16
100
AcDbSymbolTableRecord
100
AcDbLinetypeTableRecord
2
DASHED
70
0
3
Dashed __ __ __ __ __ __ __ __ __ __ __ __ __ _
72
65
73
2
40
0.75
49
0.5
74
0
49
-0.25
74
0
0
ENDTAB
0
TABLE
2
LAYER
5
2
100
AcDbSymbolTable
70
2
0
LAYER
5
50
100
AcDbSymbolTableRecord
100
AcDbLayerTableRecord
2
0
70
0
62
7
6
CONTINUOUS
0
ENDTAB
0
TABLE
2
STYLE
5
3
100
AcDbSymbolTable
70
1
0
STYLE
5
11
100
AcDbSymbolTableRecord
100
AcDbTextStyleTableRecord
2
STANDARD
70
0
0
ENDTAB
0
TABLE
2
VIEW
5
6
100
AcDbSymbolTable
70
0
0
ENDTAB
0
TABLE
2
UCS
5
7
100
AcDbSymbolTable
70
0
0
ENDTAB
0
TABLE
2
APPID
5
9
100
AcDbSymbolTable
70
2
0
APPID
5
12
100
AcDbSymbolTableRecord
100
AcDbRegAppTableRecord
2
ACAD
70
0
0
ENDTAB
0
TABLE
2
DIMSTYLE
5
A
100
AcDbSymbolTable
70
1
0
ENDTAB
0
TABLE
2
BLOCK_RECORD
5
1
100
AcDbSymbolTable
70
1
0
BLOCK_RECORD
5
1F
100
AcDbSymbolTableRecord
100
AcDbBlockTableRecord
2
*MODEL_SPACE
0
BLOCK_RECORD
5
1B
100
AcDbSymbolTableRecord
100
AcDbBlockTableRecord
2
*PAPER_SPACE
0
ENDTAB
0
ENDSEC
0
SECTION
2
BLOCKS
0
BLOCK
5
20
100
AcDbEntity
100
AcDbBlockBegin
2
*MODEL_SPACE
0
ENDBLK
5
21
100
AcDbEntity
100
AcDbBlockEnd
0
BLOCK
5
1C
100
AcDbEntity
100
AcDbBlockBegin
2
*PAPER_SPACE
0
ENDBLK
5
1D
100
AcDbEntity
100
AcDbBlockEnd
0
ENDSEC
0
SECTION
2
ENTITIES
0
POINT
5
100
100
AcDbEntity
8
0
100
AcDbPoint
10
0
20
0
30
0
0
LWPOLYLINE
5
101
100
AcDbEntity
8
0
100
AcDbPolyline
90
4
70
1
43
0.0
10
0
20
0
10
32.5
20
0
10
32.5
20
30
42
0.99999998709521598
10
0
20
30.000000447034836
0
LINE
5
102
100
AcDbEntity
8
0
100
AcDbLine
10
32.5
20
0
30
0
11
65
21
0
31
0
0
ARC
5
103
100
AcDbEntity
8
0
100
AcDbCircle
10
48.75
20
30
30
0
40
16.25
210
0
220
0
230
1
100
AcDbArc
50
-180
51
0
0
ARC
5
104
100
AcDbEntity
8
0
100
AcDbCircle
10
113.75
20
30
30
0
40
16.25
210
0
220
0
230
1
100
AcDbArc
50
-180
51
0
0
LINE
5
105
100
AcDbEntity
8
0
100
AcDbLine
10
97.5
20
0
30
0
11
130
21
0
31
0
0
LWPOLYLINE
5
106
100
AcDbEntity
8
0
100
AcDbPolyline
90
4
70
1
43
0.0
10
65
20
0
10
97.5
20
0
10
97.5
20
30
42
0.99999998709521598
10
65
20
30.000000447034836
0
ARC
5
107
100
AcDbEntity
8
0
100
AcDbCircle
10
178.75
20
30
30
0
40
16.25
210
0
220
0
230
1
100
AcDbArc
50
-180
51
0
0
LINE
5
108
100
AcDbEntity
8
0
100
AcDbLine
10
162.5
20
0
30
0
11
195
21
0
31
0
0
LINE
5
109
100
AcDbEntity
8
0
100
AcDbLine
10
130
20
0
30
0
11
162.5
21
0
31
0
0
ARC
5
110
100
AcDbEntity
8
0
100
AcDbCircle
10
146.25
20
30
30
0
40
16.25
210
0
220
0
230
1
100
AcDbArc
50
0
51
179.99999852122065
0
ARC
5
111
100
AcDbEntity
8
0
100
AcDbCircle
10
243.75
20
30
30
0
40
16.25
210
0
220
0
230
1
100
AcDbArc
50
-180
51
0
0
LINE
5
112
100
AcDbEntity
8
0
100
AcDbLine
10
227.5
20
0
30
0
11
260
21
0
31
0
0
LINE
5
113
100
AcDbEntity
8
0
100
AcDbLine
10
195
20
0
30
0
11
227.5
21
0
31
0
0
ARC
5
114
100
AcDbEntity
8
0
100
AcDbCircle
10
211.25
20
30
30
0
40
16.25
210
0
220
0
230
1
100
AcDbArc
50
0
51
179.99999852122065
0
ARC
5
115
100
AcDbEntity
8
0
100
AcDbCircle
10
308.75
20
30
30
0
40
16.25
210
0
220
0
230
1
100
AcDbArc
50
-180
51
0
0
LINE
5
116
100
AcDbEntity
8
0
100
AcDbLine
10
292.5
20
0
30
0
11
325
21
0
31
0
0
LINE
5
117
100
AcDbEntity
8
0
100
AcDbLine
10
260
20
0
30
0
11
292.5
21
0
31
0
0
ARC
5
118
100
AcDbEntity
8
0
100
AcDbCircle
10
276.25
20
30
30
0
40
16.25
210
0
220
0
230
1
100
AcDbArc
50
0
51
179.99999852122065
0
ARC
5
119
100
AcDbEntity
8
0
100
AcDbCircle
10
373.75
20
30
30
0
40
16.25
210
0
220
0
230
1
100
AcDbArc
50
-180
51
0
0
LINE
5
120
100
AcDbEntity
8
0
100
AcDbLine
10
357.5
20
0
30
0
11
390
21
0
31
0
0
LINE
5
121
100
AcDbEntity
8
0
100
AcDbLine
10
325
20
0
30
0
11
357.5
21
0
31
0
0
ARC
5
122
100
AcDbEntity
8
0
100
AcDbCircle
10
341.25
20
30
30
0
40
16.25
210
0
220
0
230
1
100
AcDbArc
50
0
51
179.99999852122065
0
LINE
5
123
100
AcDbEntity
8
0
100
AcDbLine
10
16.250000209702744
20
46.25
30
0
11
16.25
21
0
31
0
0
LINE
5
124
100
AcDbEntity
8
0
100
AcDbLine
10
25.00000037252903
20
0
30
0
11
25.00000037252903
21
43.693063699579504
31
0
0
LINE
5
125
100
AcDbEntity
8
0
100
AcDbLine
10
48.75
20
13.75
30
0
11
48.75
21
0
31
0
0
LINE
5
126
100
AcDbEntity
8
0
100
AcDbLine
10
39.800049475195628
20
16.436781886161604
30
0
11
39.800049475195628
21
0
31
0
0
LINE
5
127
100
AcDbEntity
8
0
100
AcDbLine
10
55.000000819563866
20
15.000000223517418
30
0
11
55.000000819563866
21
0
31
0
0
LINE
5
128
100
AcDbEntity
8
0
100
AcDbLine
10
60.021321100942885
20
18.294453424148035
30
0
11
60.021321100942885
21
0
31
0
0
LINE
5
129
100
AcDbEntity
8
0
100
AcDbLine
10
81.250000209702748
20
46.25
30
0
11
81.25
21
0
31
0
0
LINE
5
130
100
AcDbEntity
8
0
100
AcDbLine
10
90.00000037252903
20
0
30
0
11
90.00000037252903
21
43.693063699579504
31
0
0
LINE
5
131
100
AcDbEntity
8
0
100
AcDbLine
10
104.80004947519562
20
16.436781886161604
30
0
11
104.80004947519562
21
0
31
0
0
LINE
5
132
100
AcDbEntity
8
0
100
AcDbLine
10
113.75
20
13.75
30
0
11
113.75
21
0
31
0
0
LINE
5
133
100
AcDbEntity
8
0
100
AcDbLine
10
120.00000081956387
20
15.000000223517418
30
0
11
120.00000081956387
21
0
31
0
0
LINE
5
134
100
AcDbEntity
8
0
100
AcDbLine
10
125.02132110094288
20
18.294453424148035
30
0
11
125.02132110094288
21
0
31
0
0
LINE
5
135
100
AcDbEntity
8
0
100
AcDbLine
10
130
20
30.000000447034836
30
0
11
130
21
0
31
0
0
LINE
5
136
100
AcDbEntity
8
0
100
AcDbLine
10
146.25000020970273
20
46.25
30
0
11
146.25
21
0
31
0
0
LINE
5
137
100
AcDbEntity
8
0
100
AcDbLine
10
155.00000037252903
20
0
30
0
11
155.00000037252903
21
43.693063699579504
31
0
0
LINE
5
138
100
AcDbEntity
8
0
100
AcDbLine
10
162.5
20
30
30
0
11
162.5
21
0
31
0
0
LINE
5
139
100
AcDbEntity
8
0
100
AcDbLine
10
169.80004947519564
20
16.436781886161604
30
0
11
169.80004947519564
21
0
31
0
0
LINE
5
140
100
AcDbEntity
8
0
100
AcDbLine
10
178.75
20
13.75
30
0
11
178.75
21
0
31
0
0
LINE
5
141
100
AcDbEntity
8
0
100
AcDbLine
10
185.00000081956387
20
15.000000223517418
30
0
11
185.00000081956387
21
0
31
0
0
LINE
5
142
100
AcDbEntity
8
0
100
AcDbLine
10
190.02132110094288
20
18.294453424148035
30
0
11
190.02132110094288
21
0
31
0
0
LINE
5
143
100
AcDbEntity
8
0
100
AcDbLine
10
195
20
30.000000447034836
30
0
11
195
21
0
31
0
0
LINE
5
144
100
AcDbEntity
8
0
100
AcDbLine
10
211.25000020970276
20
46.25
30
0
11
211.25
21
0
31
0
0
LINE
5
145
100
AcDbEntity
8
0
100
AcDbLine
10
220.00000037252903
20
0
30
0
11
220.00000037252903
21
43.693063699579504
31
0
0
LINE
5
146
100
AcDbEntity
8
0
100
AcDbLine
10
227.5
20
30
30
0
11
227.5
21
0
31
0
0
LINE
5
147
100
AcDbEntity
8
0
100
AcDbLine
10
234.80004947519564
20
16.436781886161604
30
0
11
234.80004947519564
21
0
31
0
0
LINE
5
148
100
AcDbEntity
8
0
100
AcDbLine
10
243.75
20
13.75
30
0
11
243.75
21
0
31
0
0
LINE
5
149
100
AcDbEntity
8
0
100
AcDbLine
10
250.00000081956387
20
15.000000223517418
30
0
11
250.00000081956387
21
0
31
0
0
LINE
5
150
100
AcDbEntity
8
0
100
AcDbLine
10
255.02132110094288
20
18.294453424148035
30
0
11
255.02132110094288
21
0
31
0
0
LINE
5
151
100
AcDbEntity
8
0
100
AcDbLine
10
260
20
30.000000447034836
30
0
11
260
21
0
31
0
0
LINE
5
152
100
AcDbEntity
8
0
100
AcDbLine
10
276.25000020970276
20
46.25
30
0
11
276.25
21
0
31
0
0
LINE
5
153
100
AcDbEntity
8
0
100
AcDbLine
10
285.00000037252903
20
0
30
0
11
285.00000037252903
21
43.693063699579504
31
0
0
LINE
5
154
100
AcDbEntity
8
0
100
AcDbLine
10
292.5
20
30
30
0
11
292.5
21
0
31
0
0
LINE
5
155
100
AcDbEntity
8
0
100
AcDbLine
10
299.80004947519564
20
16.436781886161604
30
0
11
299.80004947519564
21
0
31
0
0
LINE
5
156
100
AcDbEntity
8
0
100
AcDbLine
10
308.75
20
13.75
30
0
11
308.75
21
0
31
0
0
LINE
5
157
100
AcDbEntity
8
0
100
AcDbLine
10
315.00000081956387
20
15.000000223517418
30
0
11
315.00000081956387
21
0
31
0
0
LINE
5
158
100
AcDbEntity
8
0
100
AcDbLine
10
320.02132110094288
20
18.294453424148035
30
0
11
320.02132110094288
21
0
31
0
0
LINE
5
159
100
AcDbEntity
8
0
100
AcDbLine
10
325
20
30.000000447034836
30
0
11
325
21
0
31
0
0
LINE
5
160
100
AcDbEntity
8
0
100
AcDbLine
10
341.25000020970276
20
46.25
30
0
11
341.25
21
0
31
0
0
LINE
5
161
100
AcDbEntity
8
0
100
AcDbLine
10
350.00000037252903
20
0
30
0
11
350.00000037252903
21
43.693063699579504
31
0
0
LINE
5
162
100
AcDbEntity
8
0
100
AcDbLine
10
357.5
20
30
30
0
11
357.5
21
0
31
0
0
LINE
5
163
100
AcDbEntity
8
0
100
AcDbLine
10
364.80004947519558
20
16.436781886161604
30
0
11
364.80004947519558
21
0
31
0
0
LINE
5
164
100
AcDbEntity
8
0
100
AcDbLine
10
373.75
20
13.75
30
0
11
373.75
21
0
31
0
0
LINE
5
165
100
AcDbEntity
8
0
100
AcDbLine
10
380.00000081956387
20
15.000000223517418
30
0
11
380.00000081956387
21
0
31
0
0
LINE
5
166
100
AcDbEntity
8
0
100
AcDbLine
10
385.02132110094288
20
18.294453424148035
30
0
11
385.02132110094288
21
0
31
0
0
LINE
5
167
100
AcDbEntity
8
0
100
AcDbLine
10
390
20
30.000000447034836
30
0
11
390
21
0
31
0
0
LINE
5
168
100
AcDbEntity
8
0
100
AcDbLine
10
8.9172999151303607
20
44.50151748836489
30
0
11
8.9172999151303607
21
0
31
0
0
LINE
5
169
100
AcDbEntity
8
0
100
AcDbLine
10
3.4160021113335826
20
39.967497087719963
30
0
11
3.4160021113335826
21
0
31
0
0
LINE
5
170
100
AcDbEntity
8
0
100
AcDbLine
10
73.917299915130357
20
44.50151748836489
30
0
11
73.917299915130357
21
0
31
0
0
LINE
5
171
100
AcDbEntity
8
0
100
AcDbLine
10
68.416002111333583
20
39.967497087719963
30
0
11
68.416002111333583
21
0
31
0
0
LINE
5
172
100
AcDbEntity
8
0
100
AcDbLine
10
138.91729991513037
20
44.50151748836489
30
0
11
138.91729991513037
21
0
31
0
0
LINE
5
173
100
AcDbEntity
8
0
100
AcDbLine
10
133.41600211133357
20
39.967497087719963
30
0
11
133.41600211133357
21
0
31
0
0
LINE
5
174
100
AcDbEntity
8
0
100
AcDbLine
10
203.91729991513034
20
44.50151748836489
30
0
11
203.91729991513034
21
0
31
0
0
LINE
5
175
100
AcDbEntity
8
0
100
AcDbLine
10
198.41600211133357
20
39.967497087719963
30
0
11
198.41600211133357
21
0
31
0
0
LINE
5
176
100
AcDbEntity
8
0
100
AcDbLine
10
268.91729991513034
20
44.50151748836489
30
0
11
268.91729991513034
21
0
31
0
0
LINE
5
177
100
AcDbEntity
8
0
100
AcDbLine
10
263.41600211133357
20
39.967497087719963
30
0
11
263.41600211133357
21
0
31
0
0
LINE
5
178
100
AcDbEntity
8
0
100
AcDbLine
10
333.9172999151304
20
44.50151748836489
30
0
11
333.9172999151304
21
0
31
0
0
LINE
5
179
100
AcDbEntity
8
0
100
AcDbLine
10
328.41600211133363
20
39.967497087719963
30
0
11
328.41600211133363
21
0
31
0
0
ENDSEC
0
SECTION
2
OBJECTS
0
DICTIONARY
5
C
100
AcDbDictionary
3
ACAD_GROUP
350
D
3
ACAD_MLINESTYLE
350
17
0
DICTIONARY
5
D
100
AcDbDictionary
0
DICTIONARY
5
1A
330
C
100
AcDbDictionary
0
DICTIONARY
5
17
100
AcDbDictionary
0
ENDSEC
0
EOF
